<svg aria-hidden="true" xmlns="http://www.w3.org/2000/svg">
<defs>
<!--sobre  -->
<symbol id="sobre" viewBox="0 0 43 32">
<path d="M38.667 0h-34.667c-2.206 0-4 1.794-4 4v24c0 2.206 1.794 4 4 4h34.667c2.206 0 4-1.794 4-4v-24c0-2.206-1.794-4-4-4zM38.667 2.667c0.181 0 0.353 0.038 0.511 0.103l-17.844 15.466-17.844-15.466c0.158-0.066 0.33-0.103 0.511-0.103h34.667zM38.667 29.333h-34.667c-0.736 0-1.333-0.598-1.333-1.333v-22.413l17.793 15.421c0.251 0.217 0.563 0.326 0.874 0.326s0.622-0.108 0.874-0.326l17.793-15.421v22.413c0 0.736-0.598 1.333-1.333 1.333z"></path>
</symbol>
<!--telefono  -->
<symbol id="telefono" viewBox="0 0 20 32">
<path d="M17 0h-14c-1.654 0-3 1.346-3 3v26c0 1.654 1.346 3 3 3h14c1.654 0 3-1.346 3-3v-26c0-1.654-1.346-3-3-3zM3 2h14c0.552 0 1 0.448 1 1v21h-16v-21c0-0.552 0.448-1 1-1zM17 30h-14c-0.552 0-1-0.448-1-1v-3h16v3c0 0.552-0.448 1-1 1z"></path>
<path d="M4.707 27.478c0.391 0.365 0.391 0.956 0 1.321s-1.024 0.365-1.414 0c-0.391-0.365-0.391-0.956 0-1.321s1.024-0.365 1.414 0z"></path>
</symbol>
<!--Antena  -->
<symbol id="antena-1" viewBox="0 0 32 32">
<path d="M30.773 22.098l-8.443-8.505 0.937-4.615c0.242 0.094 0.499 0.144 0.758 0.146h0.006c1.192 0.014 2.17-0.941 2.184-2.133s-0.941-2.17-2.133-2.184c-1.192-0.014-2.17 0.941-2.184 2.133-0.003 0.255 0.039 0.509 0.125 0.749l-4.96 0.605-8.091-8.133c-0.099-0.101-0.235-0.159-0.377-0.16-0.14 0.001-0.274 0.056-0.373 0.155l-1.513 1.504c-0.208 0.208-0.208 0.546 0 0.754l0.814 0.826c-3.153 5.798-2.129 12.978 2.519 17.663 0.043 0.041 0.092 0.074 0.146 0.098-0.034 0.18-0.051 0.364-0.052 0.547v6.187h-6.4c-1.472 0.002-2.665 1.195-2.667 2.667v1.067c0 0.295 0.239 0.533 0.533 0.533h24.533c0.295 0 0.533-0.239 0.533-0.533v-1.067c-0.002-1.472-1.195-2.665-2.667-2.667h-6.4v-2.742c1.003 0.21 2.024 0.317 3.049 0.32 2.458-0.003 4.877-0.615 7.040-1.783l0.818 0.823c0.099 0.101 0.235 0.159 0.377 0.16 0.14-0.001 0.274-0.056 0.373-0.155l1.513-1.504c0.208-0.208 0.208-0.546 0-0.754zM23.28 6.233c0.418-0.415 1.093-0.414 1.508 0.004s0.414 1.093-0.004 1.508c-0.2 0.199-0.47 0.31-0.752 0.31h-0.003c-0.589-0.003-1.064-0.483-1.061-1.072 0.002-0.282 0.115-0.552 0.314-0.751h-0.002zM22.024 9.738l-0.598 2.946-1.175-1.182 1.774-1.763zM21.419 8.836l-1.92 1.909-1.485-1.493 3.405-0.415zM24.004 28.8c0.884 0 1.6 0.716 1.6 1.6v0.533h-23.467v-0.533c0-0.884 0.716-1.6 1.6-1.6h20.267zM16.537 26.667v1.067h-5.333v-1.067h5.333zM11.204 25.6v-4.053c0-1.294 1.196-2.347 2.667-2.347s2.667 1.053 2.667 2.347v4.053h-5.333zM17.604 23.904v-2.357c0-1.882-1.675-3.413-3.733-3.413-1.331-0.020-2.576 0.657-3.281 1.786-4.058-4.274-4.971-10.645-2.279-15.887l18.602 18.708c-2.872 1.461-6.165 1.873-9.309 1.163zM28.893 23.22l-21.057-21.181 0.755-0.752 7.935 7.98c0.004 0 0.006 0.007 0.010 0.010l13.115 13.191-0.757 0.752z"></path>
<path d="M13.876 20.267h-0.005c-0.884-0.001-1.601 0.714-1.602 1.598s0.714 1.601 1.598 1.602h0.005c0.884 0.001 1.601-0.714 1.602-1.598s-0.714-1.601-1.598-1.602zM14.249 22.245c-0.1 0.1-0.236 0.156-0.378 0.155-0.295-0.002-0.532-0.242-0.531-0.536 0.001-0.141 0.057-0.276 0.157-0.375s0.233-0.154 0.373-0.155c0.295 0.002 0.532 0.241 0.53 0.536-0.001 0.141-0.057 0.276-0.157 0.375h0.005z"></path>
</symbol>
<!--Reloj  -->
<symbol id="reloj-1" viewBox="0 0 31 32">
<path d="M29.317 13.732c-0.002-7.585-6.152-13.733-13.738-13.732s-13.733 6.152-13.732 13.738c0.001 5.975 3.865 11.264 9.557 13.081 0.054 0.017 0.111 0.026 0.168 0.026 0.108-0 0.214-0.029 0.307-0.084 0.121-0.072 0.212-0.186 0.254-0.32l3.469-10.994c0.948-0.005 1.713-0.778 1.708-1.726s-0.777-1.713-1.726-1.708c-0.255 0.001-0.507 0.060-0.736 0.172l-4.582-4.583c-0.227-0.22-0.59-0.213-0.809 0.014-0.214 0.222-0.214 0.573 0 0.795l4.58 4.585c-0.351 0.717-0.151 1.583 0.481 2.072l-3.305 10.476c-6.531-2.406-9.876-9.651-7.47-16.182s9.651-9.876 16.182-7.47 9.876 9.651 7.47 16.182c-1.175 3.191-3.591 5.772-6.697 7.156l-0.357-1.682c-0.065-0.309-0.369-0.507-0.678-0.441-0.098 0.021-0.188 0.067-0.262 0.133l-3.443 3.074c-0.236 0.21-0.257 0.572-0.047 0.808 0.068 0.077 0.156 0.134 0.254 0.165l4.396 1.403c0.301 0.097 0.623-0.069 0.72-0.37 0.031-0.095 0.036-0.196 0.015-0.294l-0.351-1.65c5.083-2.143 8.384-7.128 8.372-12.644zM15.583 13.16c0.316 0 0.572 0.256 0.572 0.572s-0.256 0.572-0.572 0.572c-0.316 0-0.572-0.256-0.572-0.572s0.256-0.572 0.572-0.572zM17.468 26.499l1.96-1.748 0.541 2.549-2.501-0.801z"></path>
<path d="M15.010 2.858v1.145c0 0.316 0.256 0.572 0.572 0.572s0.572-0.256 0.572-0.572v-1.145c0-0.316-0.256-0.572-0.572-0.572s-0.572 0.256-0.572 0.572z"></path>
<path d="M4.709 13.16c-0.316 0-0.572 0.256-0.572 0.572s0.256 0.572 0.572 0.572h1.145c0.316 0 0.572-0.256 0.572-0.572s-0.256-0.572-0.572-0.572h-1.145z"></path>
<path d="M26.456 14.304c0.316 0 0.572-0.256 0.572-0.572s-0.256-0.572-0.572-0.572h-1.145c-0.316 0-0.572 0.256-0.572 0.572s0.256 0.572 0.572 0.572h1.145z"></path>
</symbol>
<!--Planificacion  -->
<symbol id="diagrama-1" viewBox="0 0 32 32">
<path d="M14.926 14.965h1.066v4.798h-1.066v-4.797z"></path>
<path d="M19.19 17.097h1.066v2.665h-1.066v-2.665z"></path>
<path d="M10.661 18.696h1.066v1.066h-1.066v-1.066z"></path>
<path d="M7.463 18.163h1.066v1.599h-1.066v-1.599z"></path>
<path d="M1.599 28.291h25.587c0.883 0 1.599-0.716 1.599-1.599v-2.132c0-0.883-0.716-1.599-1.599-1.599h-0.533v-13.293l3.028-2.868c0.703 0.346 1.553 0.136 2.013-0.499s0.396-1.508-0.152-2.068-1.42-0.644-2.065-0.198c-0.644 0.446-0.873 1.292-0.542 2.002l-2.281 2.163v-1.23c0-0.883-0.716-1.599-1.599-1.599h-21.322c-0.883 0-1.599 0.716-1.599 1.599v15.992h-0.533c-0.883 0-1.599 0.716-1.599 1.599v2.132c0 0.883 0.716 1.599 1.599 1.599zM30.384 4.837c0.294 0 0.533 0.239 0.533 0.533s-0.239 0.533-0.533 0.533c-0.294 0-0.533-0.239-0.533-0.533s0.239-0.533 0.533-0.533zM3.198 6.969c0-0.294 0.239-0.533 0.533-0.533h21.322c0.294 0 0.533 0.239 0.533 0.533v2.239l-1.066 1.013v-2.186c0-0.294-0.239-0.533-0.533-0.533h-19.19c-0.294 0-0.533 0.239-0.533 0.533v13.326c0 0.294 0.239 0.533 0.533 0.533h19.19c0.294 0 0.533-0.239 0.533-0.533v-9.674l1.066-1.010v12.284h-22.388v-15.992zM7.996 13.899c-0.721-0.002-1.354 0.478-1.546 1.174s0.105 1.433 0.725 1.801c0.62 0.368 1.41 0.276 1.928-0.226l1.853 0.93c0.215 0.108 0.476 0.057 0.636-0.123l3.939-4.431 3.872 2.901c0.208 0.156 0.498 0.139 0.686-0.039l3.365-3.188v8.131h-18.124v-12.26h18.124v2.66l-3.771 3.572-3.904-2.927c-0.222-0.166-0.534-0.135-0.718 0.072l-3.993 4.493-1.493-0.746c0.011-0.064 0.018-0.129 0.020-0.193 0-0.883-0.716-1.599-1.599-1.599zM8.529 15.498c0 0.294-0.239 0.533-0.533 0.533s-0.533-0.239-0.533-0.533c0-0.294 0.239-0.533 0.533-0.533s0.533 0.239 0.533 0.533zM11.727 24.027h5.331v0.533c0 0.294-0.239 0.533-0.533 0.533h-4.264c-0.294 0-0.533-0.239-0.533-0.533v-0.533zM1.066 24.56c0-0.294 0.239-0.533 0.533-0.533h9.062v0.533c0 0.883 0.716 1.599 1.599 1.599h4.264c0.883 0 1.599-0.716 1.599-1.599v-0.533h9.062c0.294 0 0.533 0.239 0.533 0.533v2.132c0 0.294-0.239 0.533-0.533 0.533h-25.587c-0.294 0-0.533-0.239-0.533-0.533v-2.132z"></path>
</symbol>
<!--Tecnologia Moderna  -->
<symbol id="astronauta-1" viewBox="0 0 32 32">
<path d="M31.974 4.524c-0.063-0.193-0.229-0.333-0.43-0.363l-1.91-0.278-0.855-1.731c-0.179-0.365-0.777-0.365-0.956 0l-0.855 1.731-1.91 0.278c-0.201 0.029-0.367 0.17-0.431 0.363-0.062 0.193-0.011 0.405 0.135 0.547l1.383 1.348-0.326 1.903c-0.034 0.2 0.048 0.402 0.212 0.522 0.166 0.121 0.382 0.135 0.562 0.040l1.709-0.899 1.709 0.899c0.078 0.041 0.164 0.061 0.249 0.061 0.11 0 0.221-0.034 0.314-0.102 0.164-0.119 0.246-0.322 0.212-0.522l-0.326-1.903 1.383-1.348c0.145-0.142 0.197-0.354 0.135-0.547zM29.511 5.851c-0.125 0.122-0.183 0.299-0.153 0.472l0.191 1.114-1-0.526c-0.078-0.041-0.163-0.061-0.249-0.061s-0.17 0.020-0.249 0.061l-1.001 0.526 0.191-1.114c0.030-0.173-0.028-0.349-0.153-0.472l-0.81-0.789 1.119-0.163c0.174-0.025 0.324-0.134 0.402-0.292l0.5-1.013 0.5 1.013c0.078 0.157 0.228 0.267 0.402 0.292l1.119 0.163-0.809 0.789z"></path>
<path d="M26.134 20.522h-1.067v1.067h1.067v-1.067z"></path>
<path d="M26.134 22.656h-1.067v1.067h1.067v-1.067z"></path>
<path d="M27.2 21.589h-1.067v1.067h1.067v-1.067z"></path>
<path d="M25.067 21.589h-1.067v1.067h1.067v-1.067z"></path>
<path d="M22.4 26.389h-1.067v1.067h1.067v-1.067z"></path>
<path d="M22.4 28.522h-1.067v1.067h1.067v-1.067z"></path>
<path d="M23.467 27.456h-1.067v1.067h1.067v-1.067z"></path>
<path d="M21.333 27.456h-1.067v1.067h1.067v-1.067z"></path>
<path d="M16 24.256h-1.067v1.067h1.067v-1.067z"></path>
<path d="M16 26.389h-1.067v1.067h1.067v-1.067z"></path>
<path d="M17.067 25.322h-1.067v1.067h1.067v-1.067z"></path>
<path d="M14.933 25.322h-1.067v1.067h1.067v-1.067z"></path>
<path d="M5.867 6.122h-1.067v1.067h1.067v-1.067z"></path>
<path d="M5.867 8.255h-1.067v1.067h1.067v-1.067z"></path>
<path d="M6.933 7.189h-1.067v1.067h1.067v-1.067z"></path>
<path d="M4.8 7.189h-1.067v1.067h1.067v-1.067z"></path>
<path d="M24.715 14.159c-0.287-0.388-0.709-0.637-1.188-0.705-0.481-0.068-0.956 0.058-1.34 0.352l-1.252 0.96-1.898 1.417-1.358-0.541c2.421-1.086 4.114-3.508 4.114-6.32 0-3.823-3.123-6.933-6.961-6.933s-6.961 3.11-6.961 6.933c0 1.386 0.414 2.674 1.12 3.758l-2.764-0.024c-0.002 0-0.003 0-0.005 0-0.009 0-0.015 0.004-0.023 0.005-0.053 0.002-0.105 0.013-0.155 0.031-0.013 0.005-0.026 0.008-0.038 0.013-0.006 0.003-0.013 0.003-0.019 0.006l-3.233 1.596c-0.001 0-0.001 0-0.001 0.001l-1.893 0.911c-0.021 0.009-0.042 0.021-0.063 0.035-0.755 0.502-1.012 1.489-0.598 2.295 0.22 0.429 0.595 0.745 1.056 0.889 0.178 0.055 0.359 0.083 0.539 0.083 0.29 0 0.577-0.071 0.839-0.211l1.388-0.738 2.264-1.169 1.357-0.008-5.442 5.416c-0.001 0.001-0.001 0.001-0.002 0.001l-1.339 1.333c-0.316 0.315-0.49 0.732-0.49 1.178s0.174 0.863 0.49 1.179c0.325 0.323 0.752 0.485 1.179 0.485s0.854-0.162 1.18-0.485l1.314-1.309 1.741-1.3 0.901 0.897-1.762 1.754c-0 0.001-0.001 0.001-0.002 0.001l-1.339 1.333c-0.316 0.315-0.49 0.732-0.49 1.178s0.174 0.863 0.49 1.179c0.325 0.323 0.753 0.485 1.18 0.485s0.855-0.162 1.18-0.485l3.482-3.467c0.001-0.001 0.001-0.001 0.001-0.002l1.010-1-0.004-0.004c0.006-0.006 0.015-0.009 0.022-0.015l5.166-5.658 3.471 0.494c0.025 0.004 0.050 0.005 0.075 0.005 0.065 0 0.127-0.015 0.187-0.038 0.018-0.006 0.033-0.015 0.050-0.023 0.019-0.010 0.039-0.015 0.058-0.027l3.213-2.133c0.012-0.008 0.018-0.021 0.029-0.029 0.013-0.010 0.029-0.014 0.041-0.026l1.271-1.191c0.662-0.62 0.753-1.635 0.212-2.362zM2.13 17.77c-0.173 0.093-0.37 0.111-0.558 0.052-0.187-0.058-0.338-0.186-0.427-0.358-0.161-0.314-0.068-0.695 0.214-0.902l1.314-0.632 0.449 1.312-0.992 0.528zM5.628 15.942l-1.548 0.8-0.439-1.283 2.027-1.001-0.040 1.484zM20.727 9.322c0 0.918-0.219 1.785-0.599 2.559l-4.181-1.899c-0.044-0.573-0.341-1.075-0.788-1.388l1.464-4.86c2.378 0.756 4.105 2.974 4.105 5.588zM8.938 9.322c0-3.235 2.644-5.867 5.894-5.867 0.253 0 0.5 0.021 0.745 0.052l-1.432 4.754c-0.019-0.001-0.037-0.006-0.057-0.006-1.033 0-1.873 0.837-1.873 1.867s0.84 1.867 1.873 1.867c0.694 0 1.294-0.383 1.618-0.945l3.862 1.755c-1.075 1.446-2.795 2.39-4.737 2.39-3.25 0-5.894-2.632-5.894-5.867zM14.894 10.122c0 0.441-0.362 0.8-0.806 0.8s-0.806-0.359-0.806-0.8c0-0.441 0.362-0.8 0.806-0.8s0.806 0.359 0.806 0.8zM2.465 25.146c-0.236 0.234-0.619 0.234-0.854 0.001-0.114-0.114-0.176-0.263-0.176-0.423s0.062-0.309 0.176-0.421l0.962-0.958 0.851 0.848-0.959 0.955zM5.679 28.88c-0.236 0.234-0.619 0.235-0.855 0.001-0.114-0.114-0.176-0.263-0.176-0.423s0.062-0.309 0.176-0.421l0.963-0.959 0.852 0.848-0.96 0.955zM9.16 25.411c-0.001 0-0.001 0-0.002 0.001l-1.765 1.76-0.852-0.848 1.763-1.755c0 0 0 0 0-0s0.001-0.001 0.002-0.001c0.040-0.040 0.065-0.088 0.090-0.135 0.007-0.014 0.020-0.026 0.026-0.040 0.017-0.041 0.019-0.085 0.026-0.129 0.003-0.025 0.014-0.047 0.014-0.073 0-0.036-0.013-0.070-0.020-0.106-0.006-0.032-0.006-0.065-0.019-0.095-0.020-0.050-0.055-0.094-0.091-0.138-0.010-0.012-0.014-0.027-0.025-0.038 0 0 0 0-0.001 0s-0.001-0.002-0.001-0.002l-1.607-1.6c-0.017-0.017-0.039-0.024-0.058-0.038-0.028-0.022-0.055-0.042-0.087-0.058-0.030-0.015-0.061-0.024-0.093-0.033-0.034-0.010-0.067-0.017-0.103-0.020-0.033-0.002-0.063 0.001-0.095 0.005-0.036 0.004-0.069 0.009-0.104 0.020-0.034 0.011-0.063 0.027-0.094 0.045-0.020 0.011-0.042 0.015-0.061 0.029l-1.773 1.324-0.901-0.897 2.399-2.386 4.361 4.289-0.928 0.919zM15.979 18.394c-0.015-0.002-0.030 0.004-0.045 0.003-0.039-0.002-0.076 0.001-0.115 0.007-0.030 0.005-0.059 0.011-0.088 0.021-0.034 0.012-0.065 0.028-0.097 0.047-0.030 0.018-0.057 0.037-0.083 0.061-0.013 0.011-0.028 0.017-0.040 0.029l-4.698 5.146-4.328-4.257 2.833-2.818c0.209-0.208 0.21-0.546 0.002-0.755-0.105-0.105-0.243-0.157-0.381-0.156v-0.001l-2.219 0.013 0.028-1.607 3.104 0.027c1.265 1.294 3.029 2.101 4.981 2.101 0.437 0 0.864-0.045 1.279-0.123 0.040 0.032 0.079 0.065 0.13 0.085l2.41 0.96 0.152 0.758 0.178 0.885-3.003-0.427zM20.020 18.572l-0.313-1.558 1.446-1.080 0.947 1.257-2.080 1.381zM23.774 15.741l-0.838 0.785-0.931-1.236 0.831-0.637c0.155-0.119 0.351-0.168 0.543-0.143 0.193 0.027 0.364 0.128 0.48 0.284 0.217 0.292 0.18 0.699-0.085 0.947z"></path>
<path d="M13.602 18.544l-2.143-2.133c-0.207-0.207-0.545-0.207-0.753 0l-2.142 2.133c-0.1 0.101-0.157 0.236-0.157 0.378s0.056 0.278 0.157 0.378l2.142 2.133c0.104 0.103 0.241 0.155 0.377 0.155s0.273-0.052 0.376-0.155l2.143-2.133c0.1-0.1 0.157-0.236 0.157-0.378s-0.057-0.278-0.157-0.378zM11.083 20.303l-1.387-1.381 1.387-1.381 1.387 1.381-1.387 1.381z"></path>
<path d="M17.164 5.071l-0.258 1.036c0.071 0.018 1.738 0.452 1.738 2.149h1.067c-0-2.017-1.666-2.965-2.547-3.185z"></path>
<path d="M19.711 9.322h-1.067v1.067h1.067v-1.067z"></path>
</symbol>
<!--Instagram-->
<symbol id="instagram-2" viewBox="0 0 32 32">
<path d="M31.969 9.408c-0.075-1.7-0.35-2.869-0.744-3.882-0.406-1.075-1.032-2.038-1.851-2.838-0.8-0.813-1.769-1.444-2.832-1.844-1.019-0.394-2.182-0.669-3.882-0.744-1.713-0.081-2.257-0.1-6.601-0.1s-4.888 0.019-6.595 0.094c-1.7 0.075-2.869 0.35-3.882 0.744-1.075 0.406-2.038 1.031-2.838 1.85-0.813 0.8-1.444 1.769-1.844 2.832-0.394 1.019-0.669 2.182-0.744 3.882-0.081 1.713-0.1 2.257-0.1 6.601s0.019 4.888 0.094 6.595c0.075 1.7 0.35 2.869 0.744 3.882 0.406 1.075 1.038 2.038 1.85 2.838 0.8 0.813 1.769 1.444 2.832 1.844 1.019 0.394 2.182 0.669 3.882 0.744 1.706 0.075 2.25 0.094 6.595 0.094s4.888-0.019 6.595-0.094c1.7-0.075 2.869-0.35 3.882-0.744 2.151-0.832 3.851-2.532 4.682-4.682 0.394-1.019 0.669-2.182 0.744-3.882 0.075-1.707 0.094-2.251 0.094-6.595s-0.006-4.888-0.081-6.595zM29.087 22.473c-0.069 1.563-0.331 2.407-0.55 2.969-0.538 1.394-1.644 2.5-3.038 3.038-0.563 0.219-1.413 0.481-2.969 0.55-1.688 0.075-2.194 0.094-6.464 0.094s-4.782-0.019-6.464-0.094c-1.563-0.069-2.407-0.331-2.969-0.55-0.694-0.256-1.325-0.663-1.838-1.194-0.531-0.519-0.938-1.144-1.194-1.838-0.219-0.563-0.481-1.413-0.55-2.969-0.075-1.688-0.094-2.194-0.094-6.464s0.019-4.782 0.094-6.464c0.069-1.563 0.331-2.407 0.55-2.969 0.256-0.694 0.663-1.325 1.2-1.838 0.519-0.531 1.144-0.938 1.838-1.194 0.563-0.219 1.413-0.481 2.969-0.55 1.688-0.075 2.194-0.094 6.464-0.094 4.276 0 4.782 0.019 6.464 0.094 1.563 0.069 2.407 0.331 2.969 0.55 0.694 0.256 1.325 0.662 1.838 1.194 0.531 0.519 0.938 1.144 1.194 1.838 0.219 0.563 0.481 1.413 0.55 2.969 0.075 1.688 0.094 2.194 0.094 6.464s-0.019 4.77-0.094 6.458z"></path>
<path d="M16.059 7.783c-4.538 0-8.22 3.682-8.22 8.22s3.682 8.22 8.22 8.22c4.539 0 8.22-3.682 8.22-8.22s-3.682-8.22-8.22-8.22zM16.059 21.335c-2.944 0-5.332-2.388-5.332-5.332s2.388-5.332 5.332-5.332c2.944 0 5.332 2.388 5.332 5.332s-2.388 5.332-5.332 5.332z"></path>
<path d="M26.524 7.458c0 1.060-0.859 1.919-1.919 1.919s-1.919-0.859-1.919-1.919c0-1.060 0.859-1.919 1.919-1.919s1.919 0.859 1.919 1.919z"></path>
</symbol>
<!--Twiter  -->
<symbol id="twitter-1" viewBox="0 0 32 32">
<path d="M32 6.078c-1.19 0.522-2.458 0.868-3.78 1.036 1.36-0.812 2.398-2.088 2.886-3.626-1.268 0.756-2.668 1.29-4.16 1.588-1.204-1.282-2.92-2.076-4.792-2.076-3.632 0-6.556 2.948-6.556 6.562 0 0.52 0.044 1.020 0.152 1.496-5.454-0.266-10.28-2.88-13.522-6.862-0.566 0.982-0.898 2.106-0.898 3.316 0 2.272 1.17 4.286 2.914 5.452-1.054-0.020-2.088-0.326-2.964-0.808 0 0.020 0 0.046 0 0.072 0 3.188 2.274 5.836 5.256 6.446-0.534 0.146-1.116 0.216-1.72 0.216-0.42 0-0.844-0.024-1.242-0.112 0.85 2.598 3.262 4.508 6.13 4.57-2.232 1.746-5.066 2.798-8.134 2.798-0.538 0-1.054-0.024-1.57-0.090 2.906 1.874 6.35 2.944 10.064 2.944 12.072 0 18.672-10 18.672-18.668 0-0.29-0.010-0.57-0.024-0.848 1.302-0.924 2.396-2.078 3.288-3.406z"></path>
</symbol>
<!--Facebook  -->
<symbol id="facebook-1" viewBox="0 0 32 32">
<path d="M21.329 5.313h2.921v-5.088c-0.504-0.069-2.237-0.225-4.256-0.225-4.212 0-7.097 2.649-7.097 7.519v4.481h-4.648v5.688h4.648v14.312h5.699v-14.311h4.46l0.708-5.688h-5.169v-3.919c0.001-1.644 0.444-2.769 2.735-2.769z"></path>
</symbol>
<!--linkedin  -->
<symbol id="linkedin-1" viewBox="0 0 32 32">
<path d="M31.992 32v-0.001h0.008v-11.736c0-5.741-1.236-10.164-7.948-10.164-3.227 0-5.392 1.771-6.276 3.449h-0.093v-2.913h-6.364v21.364h6.627v-10.579c0-2.785 0.528-5.479 3.977-5.479 3.399 0 3.449 3.179 3.449 5.657v10.401h6.62z"></path>
<path d="M0.528 10.636h6.635v21.364h-6.635v-21.364z"></path>
<path d="M3.843 0c-2.121 0-3.843 1.721-3.843 3.843s1.721 3.879 3.843 3.879c2.121 0 3.843-1.757 3.843-3.879-0.001-2.121-1.723-3.843-3.843-3.843v0z"></path>
</symbol>
<!--Union  -->
<symbol id="Union" viewBox="0 0 29 32">
<path d="M4.174 0.060l4.875 4.615-9.049-0.005v22.391h23.652v-8.561l4.87 4.61v-23.050h-24.348zM23.438 17.958l-13.822-13.085h13.822v13.085zM19.146 23.786h-15.404v-15.059h1.089v14.040h14.315v1.020zM7.38 30.043l-0.569 1.172-0.569-1.172h-0.477l0.83 1.563v0.91h0.431v-0.91l0.829-1.563h-0.476zM8.095 32.515l0.2-0.576h0.958l0.202 0.576h0.448l-0.936-2.473h-0.386l-0.934 2.473h0.447zM8.774 30.567l0.358 1.026h-0.717l0.358-1.026zM11.040 31.534c-0.062 0.095-0.093 0.2-0.093 0.314 0 0.208 0.073 0.378 0.219 0.508 0.147 0.129 0.343 0.194 0.588 0.194s0.455-0.066 0.632-0.199l0.139 0.165h0.479l-0.363-0.43c0.143-0.195 0.214-0.444 0.214-0.749h-0.358c0 0.166-0.034 0.318-0.104 0.454l-0.477-0.564 0.168-0.122c0.119-0.086 0.204-0.172 0.257-0.258 0.052-0.087 0.078-0.182 0.078-0.285 0-0.156-0.058-0.287-0.173-0.392-0.114-0.106-0.262-0.16-0.442-0.16-0.199 0-0.358 0.057-0.476 0.17-0.118 0.112-0.177 0.265-0.177 0.459 0 0.079 0.019 0.161 0.056 0.246 0.038 0.085 0.106 0.188 0.202 0.309-0.183 0.131-0.306 0.245-0.369 0.341zM12.156 32.081c-0.121 0.093-0.251 0.139-0.391 0.139-0.123 0-0.222-0.036-0.296-0.107s-0.11-0.164-0.11-0.279c0-0.132 0.068-0.25 0.204-0.353l0.053-0.037 0.54 0.637zM11.713 30.985c-0.117-0.144-0.175-0.263-0.175-0.358 0-0.083 0.024-0.151 0.071-0.206s0.111-0.082 0.192-0.082c0.075 0 0.136 0.023 0.185 0.070 0.049 0.045 0.073 0.1 0.073 0.165 0 0.097-0.035 0.177-0.105 0.239l-0.053 0.042-0.189 0.129zM15.738 32.328c0.17-0.148 0.267-0.354 0.292-0.618h-0.428c-0.023 0.177-0.076 0.303-0.161 0.379s-0.212 0.114-0.38 0.114c-0.185 0-0.325-0.070-0.421-0.211-0.095-0.14-0.143-0.344-0.143-0.611v-0.219c0.002-0.264 0.053-0.464 0.153-0.599 0.101-0.137 0.245-0.206 0.431-0.206 0.161 0 0.283 0.040 0.365 0.119 0.084 0.078 0.136 0.206 0.156 0.384h0.428c-0.027-0.271-0.124-0.48-0.29-0.628s-0.386-0.222-0.659-0.222c-0.203 0-0.382 0.048-0.537 0.144-0.154 0.096-0.272 0.233-0.355 0.411s-0.124 0.383-0.124 0.616v0.231c0.003 0.228 0.046 0.427 0.127 0.599s0.197 0.305 0.346 0.399c0.151 0.093 0.324 0.139 0.521 0.139 0.282 0 0.508-0.074 0.678-0.221zM18.263 31.982c0.084-0.183 0.126-0.396 0.126-0.639v-0.138c-0.001-0.241-0.044-0.452-0.129-0.634-0.085-0.182-0.206-0.322-0.362-0.418-0.155-0.097-0.333-0.146-0.535-0.146s-0.38 0.049-0.537 0.148c-0.155 0.097-0.276 0.238-0.362 0.423-0.085 0.185-0.127 0.397-0.127 0.639v0.139c0.001 0.237 0.044 0.446 0.129 0.627 0.086 0.181 0.207 0.321 0.363 0.42 0.157 0.097 0.336 0.146 0.537 0.146 0.203 0 0.382-0.049 0.537-0.146 0.156-0.099 0.276-0.239 0.36-0.421zM17.803 30.584c0.104 0.146 0.156 0.356 0.156 0.63v0.129c0 0.279-0.052 0.49-0.155 0.635-0.102 0.145-0.248 0.217-0.438 0.217-0.188 0-0.335-0.074-0.442-0.222-0.105-0.148-0.158-0.358-0.158-0.63v-0.143c0.002-0.266 0.055-0.472 0.16-0.616 0.105-0.146 0.251-0.219 0.437-0.219 0.19 0 0.337 0.073 0.44 0.219z"></path>
</symbol>
<!--Union 1  -->
<symbol id="Union-1" viewBox="0 0 37 32">
<path d="M15.647 2.763h-0.125c-0.192-0.012-0.384-0.016-0.576-0.021v0h-0.416c-0.363 0-0.733 0.009-1.101 0.028-0.028-0.002-0.056-0.002-0.083 0-3.332 0.189-6.596 1.022-9.615 2.453l-0.396 0.191v20.243l0.925-0.314c0.812-0.279 1.677-0.53 2.572-0.763 2.42-0.621 4.904-0.951 7.401-0.983v2.66c-0.331 0.002-0.652 0.012-0.974 0.028h-0.076c-1.922 0.105-3.829 0.398-5.694 0.874-2.363 0.591-4.642 1.48-6.784 2.643v-25.963c2.225-1.298 4.621-2.272 7.117-2.895 2.192-0.566 4.445-0.856 6.707-0.865h0.391c0.467 0.012 0.923 0.033 1.351 0.065 1.127 0.079 2.246 0.257 3.342 0.532v2.618c-1.065-0.248-2.148-0.411-3.238-0.488-0.022-0.002-0.044-0.004-0.066-0.006-0.226-0.019-0.452-0.039-0.662-0.039zM20.254 5.439c0.58 0.044 1.182 0.065 1.79 0.065 2.379-0.009 4.747-0.312 7.052-0.904 2.361-0.594 4.64-1.483 6.781-2.646v25.5c-2.226 1.297-4.622 2.271-7.119 2.895-2.192 0.564-4.445 0.853-6.707 0.863-1.714 0.014-3.424-0.188-5.088-0.6v-25.665c0.393 0.091 0.798 0.174 1.21 0.244 0.675 0.114 1.388 0.198 2.082 0.249zM33.232 5.636l-0.925 0.312c-0.851 0.286-1.709 0.542-2.572 0.77-2.512 0.645-5.093 0.977-7.686 0.986-0.604 0-1.159-0.016-1.695-0.051l-0.738-0.049v20.825l0.634 0.056c0.588 0.051 1.194 0.077 1.804 0.077 2.042-0.009 4.075-0.272 6.053-0.784 1.628-0.408 3.213-0.978 4.73-1.699l0.396-0.191v-20.25z"></path>
</symbol>
<!--Objeto-->
<symbol id="Objecto" viewBox="0 0 34 32">
<path d="M5.643 31.382c0.012 0 0.024 0.003 0.035 0.007s0.021 0.011 0.029 0.018l0.166 0.159c-0.129 0.129-0.288 0.231-0.467 0.302-0.21 0.076-0.435 0.113-0.663 0.108-0.214 0.004-0.426-0.031-0.623-0.101-0.178-0.065-0.338-0.162-0.469-0.285-0.134-0.128-0.237-0.277-0.303-0.44-0.073-0.182-0.108-0.373-0.106-0.565-0.003-0.194 0.036-0.386 0.114-0.567 0.073-0.164 0.182-0.314 0.322-0.44 0.142-0.124 0.312-0.222 0.499-0.287 0.205-0.069 0.422-0.103 0.642-0.101 0.204-0.004 0.407 0.027 0.596 0.092 0.165 0.062 0.316 0.148 0.447 0.254l-0.139 0.17c-0.010 0.012-0.022 0.022-0.035 0.031-0.016 0.010-0.036 0.014-0.056 0.013-0.022-0.001-0.042-0.008-0.060-0.018l-0.075-0.045-0.104-0.058c-0.045-0.021-0.091-0.040-0.139-0.056-0.062-0.019-0.125-0.034-0.189-0.045-0.082-0.013-0.164-0.019-0.247-0.018-0.158-0.002-0.315 0.024-0.461 0.076-0.136 0.048-0.26 0.121-0.361 0.213-0.104 0.098-0.183 0.214-0.235 0.339-0.058 0.144-0.087 0.295-0.085 0.448-0.002 0.155 0.026 0.309 0.085 0.455 0.051 0.125 0.129 0.239 0.231 0.338 0.095 0.092 0.213 0.163 0.345 0.209 0.136 0.049 0.281 0.073 0.428 0.072 0.085 0.001 0.17-0.004 0.253-0.014 0.137-0.015 0.268-0.056 0.384-0.121 0.058-0.033 0.113-0.071 0.164-0.112 0.021-0.018 0.049-0.028 0.079-0.029z"></path>
<path d="M10.441 30.583c0.003 0.192-0.035 0.382-0.112 0.561-0.068 0.163-0.174 0.311-0.313 0.436s-0.306 0.222-0.491 0.286c-0.407 0.135-0.856 0.135-1.263 0-0.184-0.065-0.35-0.163-0.488-0.287-0.138-0.127-0.246-0.277-0.316-0.44-0.15-0.364-0.15-0.761 0-1.125 0.071-0.164 0.178-0.314 0.316-0.442 0.139-0.12 0.305-0.214 0.488-0.276 0.406-0.137 0.857-0.137 1.263 0 0.185 0.065 0.351 0.163 0.49 0.287 0.137 0.125 0.243 0.273 0.314 0.435 0.077 0.181 0.115 0.372 0.112 0.565zM10.005 30.583c0.003-0.153-0.023-0.306-0.079-0.451-0.047-0.125-0.122-0.24-0.222-0.338-0.097-0.093-0.217-0.166-0.351-0.213-0.296-0.099-0.623-0.099-0.918 0-0.134 0.048-0.254 0.12-0.351 0.213-0.101 0.097-0.178 0.212-0.224 0.338-0.106 0.294-0.106 0.609 0 0.902 0.047 0.125 0.123 0.24 0.224 0.338 0.098 0.092 0.217 0.164 0.351 0.211 0.296 0.096 0.622 0.096 0.918 0 0.134-0.047 0.254-0.119 0.351-0.211 0.1-0.098 0.175-0.213 0.222-0.338 0.056-0.145 0.082-0.298 0.079-0.451z"></path>
<path d="M13.715 31.057l0.044 0.101c0.017-0.036 0.031-0.069 0.048-0.101 0.016-0.034 0.034-0.067 0.054-0.099l1.062-1.677c0.021-0.029 0.039-0.047 0.060-0.052 0.028-0.007 0.058-0.011 0.087-0.009h0.314v2.727h-0.372v-2.005c0-0.025 0-0.054 0-0.085-0.002-0.031-0.002-0.063 0-0.094l-1.068 1.7c-0.014 0.025-0.035 0.047-0.062 0.062s-0.059 0.023-0.091 0.023h-0.060c-0.032 0-0.064-0.007-0.091-0.022s-0.049-0.037-0.062-0.062l-1.099-1.711c0 0.033 0 0.065 0 0.097s0 0.061 0 0.087v2.005h-0.359v-2.722h0.314c0.029-0.001 0.059 0.002 0.087 0.009 0.026 0.011 0.046 0.030 0.058 0.052l1.084 1.678c0.021 0.031 0.039 0.064 0.054 0.097z"></path>
<path d="M17.71 30.921v1.021h-0.415v-2.723h0.926c0.175-0.003 0.349 0.017 0.517 0.060 0.134 0.033 0.259 0.091 0.366 0.17 0.092 0.074 0.163 0.165 0.208 0.267 0.049 0.111 0.073 0.229 0.071 0.348 0.002 0.119-0.024 0.238-0.077 0.348-0.050 0.105-0.127 0.198-0.224 0.273-0.107 0.082-0.232 0.143-0.368 0.18-0.162 0.045-0.331 0.066-0.501 0.063l-0.503-0.007zM17.71 30.629h0.503c0.109 0.001 0.218-0.013 0.322-0.042 0.086-0.025 0.165-0.065 0.233-0.117 0.062-0.050 0.111-0.112 0.141-0.18 0.034-0.073 0.051-0.151 0.050-0.229 0.005-0.076-0.009-0.151-0.042-0.222s-0.082-0.134-0.145-0.186c-0.159-0.108-0.358-0.16-0.559-0.146h-0.503v1.123z"></path>
<path d="M23.294 31.946h-0.328c-0.033 0.001-0.065-0.008-0.091-0.025-0.024-0.017-0.042-0.039-0.054-0.063l-0.282-0.659h-1.419l-0.293 0.659c-0.011 0.024-0.029 0.045-0.052 0.061-0.026 0.018-0.060 0.028-0.093 0.027h-0.328l1.246-2.727h0.432l1.263 2.727zM21.237 30.934h1.172l-0.494-1.11c-0.038-0.084-0.069-0.169-0.093-0.256l-0.048 0.143c-0.015 0.043-0.031 0.083-0.046 0.116l-0.49 1.108z"></path>
<path d="M25.089 29.232c0.025 0.012 0.046 0.029 0.062 0.049l1.818 2.056c0-0.032 0-0.065 0-0.096s0-0.061 0-0.090v-1.931h0.372v2.727h-0.208c-0.029 0.001-0.059-0.005-0.085-0.016-0.026-0.013-0.048-0.030-0.066-0.050l-1.816-2.054c0.002 0.031 0.002 0.063 0 0.094 0 0.031 0 0.058 0 0.083v1.944h-0.372v-2.727h0.22c0.026-0.001 0.051 0.004 0.075 0.013z"></path>
<path d="M30.402 30.862v1.083h-0.415v-1.083l-1.149-1.642h0.372c0.032-0.002 0.064 0.007 0.089 0.023 0.023 0.018 0.042 0.038 0.056 0.061l0.719 1.059c0.029 0.045 0.054 0.087 0.075 0.126s0.037 0.078 0.052 0.116l0.054-0.117c0.020-0.043 0.044-0.085 0.071-0.125l0.708-1.067c0.015-0.021 0.033-0.041 0.054-0.058 0.025-0.019 0.057-0.028 0.089-0.027h0.376l-1.151 1.65z"></path>
<path d="M13.51 24.642c0.181 0.020 0.364 0.036 0.548 0.050 2.803-1.089 5.174-2.872 6.817-5.126s2.485-4.878 2.421-7.546l-3.089-2.684c0.628 2.84 0.334 5.776-0.848 8.479s-3.208 5.067-5.849 6.827z"></path>
<path d="M12.407 24.518l0.083 0.014c2.822-1.754 4.974-4.203 6.176-7.030s1.402-5.904 0.571-8.83l-4.4-3.823c1.78 3.142 2.496 6.659 2.066 10.14s-1.989 6.786-4.496 9.529z"></path>
<path d="M27.328 15.172c-0.747 2.931-2.563 5.574-5.177 7.537-0.763 0.577-1.587 1.090-2.459 1.534 2.128-0.543 4.085-1.504 5.718-2.809s2.9-2.917 3.703-4.714l-1.784-1.549z"></path>
<path d="M26.628 14.741l-2.541-2.207c-0.049 2.517-0.872 4.976-2.385 7.123s-3.66 3.902-6.217 5.084h0.012c0.57-0 1.139-0.030 1.706-0.088 2.39-0.848 4.502-2.196 6.147-3.926s2.771-3.785 3.278-5.985z"></path>
<path d="M12.774 3.237l-3.031-2.637c-2.709 0.91-5.040 2.509-6.686 4.588s-2.531 4.542-2.54 7.066v0c0.010 2.789 1.090 5.495 3.070 7.69s4.745 3.754 7.859 4.43c2.78-2.943 4.407-6.578 4.646-10.38s-0.924-7.569-3.319-10.757z"></path>
<path d="M33.631 14.335c-0.011-3.309-1.529-6.479-4.221-8.818s-6.342-3.658-10.15-3.668c-1.76-0.002-3.504 0.281-5.146 0.832l18.557 16.123c0.635-1.425 0.961-2.941 0.96-4.469z"></path>
</symbol>
<!--logo  -->
<symbol id="Logo" viewBox="0 0 64 32">
<path d="M14.579 12.794h-0.002c-1.448 0-2.622 1.043-2.622 2.33v0.002c0 1.287 1.174 2.33 2.622 2.33h0.002c1.448 0 2.622-1.043 2.622-2.33v-0.002c0-1.287-1.174-2.33-2.622-2.33z"></path>
<path d="M33.929 12.049c-0.004-1.787-0.805-3.5-2.226-4.764s-3.349-1.976-5.36-1.98v0c-2.012 0.003-3.94 0.715-5.362 1.979s-2.224 2.977-2.228 4.765v9.855c0 0 15.175-1.502 15.177-9.854v-0.002z"></path>
<path d="M6.641 25.139c0.004 1.244 0.561 2.435 1.55 3.315s2.33 1.375 3.729 1.379c1.399-0.004 2.739-0.499 3.729-1.378s1.547-2.070 1.551-3.314v-6.857c0 0-10.559 1.046-10.559 6.856zM11.921 26.368c-0.273 0-0.541-0.072-0.768-0.207s-0.405-0.327-0.509-0.551c-0.105-0.225-0.132-0.472-0.079-0.71s0.185-0.457 0.378-0.629c0.193-0.172 0.44-0.289 0.708-0.336s0.546-0.023 0.799 0.070c0.253 0.093 0.469 0.25 0.62 0.453s0.233 0.44 0.233 0.683c0.001 0.162-0.035 0.322-0.104 0.472s-0.171 0.286-0.299 0.4c-0.128 0.115-0.281 0.205-0.449 0.268s-0.348 0.094-0.53 0.094v-0.005z"></path>
<path d="M21.573 24.168v2.575h-0.531v-2.575h0.531zM22.599 25.268v0.414h-1.171v-0.414h1.171zM22.723 24.168v0.416h-1.295v-0.416h1.295zM25.146 25.396v0.122c0 0.196-0.026 0.371-0.080 0.527s-0.128 0.288-0.225 0.398c-0.097 0.108-0.212 0.192-0.347 0.249-0.133 0.058-0.281 0.087-0.444 0.087-0.162 0-0.31-0.029-0.444-0.087-0.133-0.058-0.249-0.141-0.347-0.249-0.098-0.11-0.174-0.242-0.228-0.398-0.053-0.156-0.080-0.331-0.080-0.527v-0.122c0-0.197 0.027-0.373 0.080-0.527 0.053-0.156 0.128-0.288 0.225-0.398 0.098-0.11 0.213-0.193 0.347-0.251 0.134-0.058 0.282-0.087 0.444-0.087 0.163 0 0.311 0.029 0.444 0.087 0.134 0.058 0.25 0.142 0.347 0.251 0.098 0.11 0.173 0.242 0.226 0.398 0.054 0.154 0.081 0.33 0.081 0.527zM24.61 25.518v-0.126c0-0.137-0.012-0.257-0.037-0.361s-0.061-0.191-0.11-0.262c-0.048-0.071-0.107-0.124-0.177-0.159-0.070-0.037-0.149-0.055-0.239-0.055s-0.169 0.018-0.239 0.055c-0.068 0.035-0.127 0.088-0.175 0.159-0.047 0.071-0.083 0.158-0.108 0.262s-0.037 0.224-0.037 0.361v0.126c0 0.136 0.012 0.256 0.037 0.361 0.025 0.104 0.061 0.192 0.11 0.264 0.048 0.071 0.107 0.124 0.177 0.161s0.149 0.055 0.239 0.055c0.090 0 0.169-0.018 0.239-0.055s0.128-0.090 0.175-0.161c0.047-0.072 0.083-0.16 0.108-0.264 0.025-0.105 0.037-0.225 0.037-0.361zM26.869 26.070c0-0.046-0.007-0.087-0.021-0.124-0.013-0.038-0.038-0.072-0.074-0.103-0.037-0.032-0.088-0.063-0.154-0.094s-0.152-0.063-0.256-0.096c-0.117-0.038-0.228-0.080-0.333-0.127-0.104-0.047-0.196-0.102-0.276-0.164-0.079-0.064-0.141-0.137-0.187-0.221-0.045-0.084-0.067-0.181-0.067-0.292 0-0.107 0.024-0.205 0.071-0.292 0.047-0.088 0.113-0.164 0.198-0.226 0.085-0.064 0.185-0.113 0.301-0.147 0.117-0.034 0.245-0.051 0.384-0.051 0.19 0 0.355 0.034 0.497 0.103s0.251 0.162 0.329 0.281c0.079 0.119 0.119 0.255 0.119 0.409h-0.527c0-0.075-0.016-0.141-0.048-0.198-0.031-0.058-0.078-0.103-0.142-0.136-0.063-0.033-0.142-0.049-0.237-0.049-0.092 0-0.169 0.014-0.23 0.042-0.061 0.027-0.107 0.064-0.138 0.111-0.031 0.046-0.046 0.098-0.046 0.156 0 0.044 0.011 0.083 0.032 0.119 0.022 0.035 0.055 0.068 0.099 0.099s0.097 0.060 0.161 0.087c0.064 0.027 0.137 0.054 0.221 0.080 0.14 0.042 0.264 0.090 0.37 0.143 0.107 0.053 0.197 0.113 0.269 0.179s0.126 0.141 0.163 0.225c0.037 0.084 0.055 0.179 0.055 0.285 0 0.112-0.022 0.212-0.065 0.301s-0.107 0.163-0.189 0.225-0.181 0.108-0.295 0.14c-0.114 0.032-0.242 0.048-0.384 0.048-0.127 0-0.253-0.016-0.377-0.049-0.124-0.034-0.236-0.085-0.338-0.154-0.1-0.068-0.18-0.156-0.241-0.262s-0.090-0.232-0.090-0.377h0.532c0 0.080 0.012 0.148 0.037 0.203s0.060 0.1 0.104 0.134c0.046 0.034 0.1 0.059 0.163 0.074 0.064 0.015 0.133 0.023 0.209 0.023 0.092 0 0.167-0.013 0.226-0.039 0.060-0.026 0.104-0.062 0.133-0.108 0.029-0.046 0.044-0.098 0.044-0.156zM28.912 24.168v2.575h-0.529v-2.575h0.529zM29.704 24.168v0.416h-2.101v-0.416h2.101zM31.735 26.33v0.414h-1.371v-0.414h1.371zM30.538 24.168v2.575h-0.531v-2.575h0.531zM31.556 25.217v0.403h-1.192v-0.403h1.192zM31.733 24.168v0.416h-1.369v-0.416h1.369zM32.045 24.168h0.96c0.197 0 0.366 0.029 0.508 0.088 0.143 0.059 0.252 0.146 0.329 0.262s0.115 0.258 0.115 0.426c0 0.138-0.024 0.256-0.071 0.355-0.046 0.098-0.111 0.18-0.196 0.246-0.084 0.065-0.182 0.117-0.295 0.156l-0.168 0.088h-0.835l-0.004-0.414h0.621c0.093 0 0.17-0.016 0.232-0.049s0.107-0.079 0.138-0.138c0.032-0.059 0.048-0.127 0.048-0.205 0-0.083-0.015-0.154-0.046-0.214s-0.077-0.106-0.14-0.138c-0.063-0.032-0.141-0.048-0.235-0.048h-0.43v2.16h-0.531v-2.575zM33.484 26.744l-0.587-1.148 0.561-0.004 0.594 1.127v0.025h-0.568zM36.27 25.825h-0.656v-0.414h0.656c0.101 0 0.184-0.017 0.248-0.049 0.064-0.034 0.11-0.081 0.14-0.142s0.044-0.128 0.044-0.203c0-0.077-0.015-0.148-0.044-0.214s-0.076-0.119-0.14-0.159-0.146-0.060-0.248-0.060h-0.472v2.16h-0.531v-2.575h1.003c0.202 0 0.374 0.037 0.518 0.11 0.145 0.072 0.256 0.172 0.333 0.299s0.115 0.273 0.115 0.437c0 0.166-0.038 0.31-0.115 0.432s-0.187 0.215-0.333 0.281c-0.144 0.066-0.317 0.099-0.518 0.099zM39.331 26.33v0.414h-1.371v-0.414h1.371zM38.133 24.168v2.575h-0.531v-2.575h0.531zM39.152 25.217v0.403h-1.192v-0.403h1.192zM39.329 24.168v0.416h-1.369v-0.416h1.369zM40.827 24.168v2.575h-0.529v-2.575h0.529zM41.62 24.168v0.416h-2.101v-0.416h2.101zM43.65 26.33v0.414h-1.371v-0.414h1.371zM42.453 24.168v2.575h-0.531v-2.575h0.531zM43.472 25.217v0.403h-1.192v-0.403h1.192zM43.648 24.168v0.416h-1.369v-0.416h1.369zM43.96 24.168h0.96c0.197 0 0.366 0.029 0.508 0.088 0.143 0.059 0.252 0.146 0.329 0.262s0.115 0.258 0.115 0.426c0 0.138-0.024 0.256-0.071 0.355-0.046 0.098-0.111 0.18-0.196 0.246-0.084 0.065-0.182 0.117-0.295 0.156l-0.168 0.088h-0.835l-0.004-0.414h0.621c0.093 0 0.17-0.016 0.232-0.049s0.107-0.079 0.138-0.138c0.032-0.059 0.048-0.127 0.048-0.205 0-0.083-0.015-0.154-0.046-0.214s-0.077-0.106-0.14-0.138c-0.063-0.032-0.141-0.048-0.235-0.048h-0.43v2.16h-0.531v-2.575zM45.4 26.744l-0.587-1.148 0.561-0.004 0.594 1.127v0.025h-0.568zM47.621 26.070c0-0.046-0.007-0.087-0.021-0.124-0.013-0.038-0.038-0.072-0.074-0.103-0.037-0.032-0.088-0.063-0.154-0.094s-0.152-0.063-0.256-0.096c-0.117-0.038-0.228-0.080-0.333-0.127-0.104-0.047-0.196-0.102-0.276-0.164-0.079-0.064-0.141-0.137-0.187-0.221-0.045-0.084-0.067-0.181-0.067-0.292 0-0.107 0.024-0.205 0.071-0.292 0.047-0.088 0.113-0.164 0.198-0.226 0.085-0.064 0.185-0.113 0.301-0.147 0.117-0.034 0.245-0.051 0.384-0.051 0.19 0 0.355 0.034 0.497 0.103s0.251 0.162 0.329 0.281c0.079 0.119 0.119 0.255 0.119 0.409h-0.527c0-0.075-0.016-0.141-0.048-0.198-0.031-0.058-0.078-0.103-0.142-0.136-0.063-0.033-0.142-0.049-0.237-0.049-0.092 0-0.169 0.014-0.23 0.042-0.061 0.027-0.107 0.064-0.138 0.111-0.031 0.046-0.046 0.098-0.046 0.156 0 0.044 0.011 0.083 0.032 0.119 0.022 0.035 0.055 0.068 0.099 0.099s0.097 0.060 0.161 0.087c0.064 0.027 0.137 0.054 0.221 0.080 0.14 0.042 0.264 0.090 0.37 0.143 0.107 0.053 0.197 0.113 0.269 0.179s0.126 0.141 0.163 0.225c0.037 0.084 0.055 0.179 0.055 0.285 0 0.112-0.022 0.212-0.065 0.301s-0.107 0.163-0.189 0.225-0.181 0.108-0.295 0.14c-0.114 0.032-0.242 0.048-0.384 0.048-0.127 0-0.253-0.016-0.377-0.049-0.124-0.034-0.236-0.085-0.338-0.154-0.1-0.068-0.18-0.156-0.241-0.262s-0.090-0.232-0.090-0.377h0.532c0 0.080 0.012 0.148 0.037 0.203s0.060 0.1 0.104 0.134c0.046 0.034 0.1 0.059 0.163 0.074 0.064 0.015 0.133 0.023 0.209 0.023 0.092 0 0.167-0.013 0.226-0.039 0.060-0.026 0.104-0.062 0.133-0.108 0.029-0.046 0.044-0.098 0.044-0.156z"></path>
</symbol>
<!--Grupo  -->
<symbol id="grupo" viewBox="0 0 43 32">
<path d="M3.239 26.432c0.166 0.188 0.254 0.424 0.25 0.665 0.008 0.158-0.022 0.315-0.089 0.46s-0.169 0.275-0.298 0.38c-0.322 0.223-0.722 0.332-1.125 0.307h-1.977v-4.215h1.937c0.382-0.023 0.761 0.076 1.073 0.28 0.125 0.096 0.224 0.217 0.289 0.354s0.095 0.286 0.086 0.435c0.011 0.233-0.068 0.461-0.225 0.645-0.15 0.168-0.358 0.284-0.589 0.329 0.262 0.044 0.499 0.172 0.668 0.36zM0.92 25.796h0.828c0.188 0.013 0.375-0.037 0.526-0.14 0.062-0.052 0.111-0.116 0.141-0.187s0.043-0.148 0.036-0.225c0.006-0.076-0.007-0.153-0.037-0.224s-0.078-0.135-0.138-0.188c-0.156-0.106-0.349-0.156-0.542-0.142h-0.814v1.106zM2.355 27.412c0.066-0.053 0.119-0.119 0.153-0.193s0.049-0.155 0.043-0.235c0.005-0.081-0.010-0.163-0.045-0.238s-0.088-0.142-0.155-0.195c-0.162-0.11-0.361-0.164-0.562-0.152h-0.868v1.159h0.879c0.198 0.011 0.394-0.041 0.556-0.146z"></path>
<path d="M7.197 28.244l-1.077-1.648h-0.405v1.648h-0.927v-4.215h1.754c0.442-0.028 0.879 0.1 1.221 0.358 0.245 0.229 0.393 0.53 0.417 0.85s-0.078 0.637-0.287 0.894c-0.216 0.227-0.512 0.378-0.837 0.428l1.147 1.685h-1.008zM5.715 26.022h0.758c0.526 0 0.789-0.213 0.789-0.638 0.005-0.087-0.009-0.174-0.042-0.255s-0.085-0.156-0.151-0.218c-0.166-0.127-0.38-0.188-0.596-0.171h-0.767l0.009 1.283z"></path>
<path d="M12.262 27.396h-1.847l-0.326 0.848h-0.972l1.696-4.168h1.050l1.689 4.168h-0.972l-0.319-0.848zM12.015 26.757l-0.675-1.779-0.675 1.779h1.349z"></path>
<path d="M18.602 28.244h-0.92l-2.062-2.867v2.867h-0.918v-4.215h0.918l2.062 2.883v-2.883h0.92v4.215z"></path>
<path d="M23.852 27.235c-0.19 0.318-0.48 0.577-0.832 0.743-0.4 0.185-0.845 0.276-1.293 0.266h-1.637v-4.215h1.637c0.448-0.011 0.891 0.078 1.293 0.259 0.352 0.163 0.642 0.419 0.832 0.735 0.189 0.343 0.288 0.722 0.288 1.106s-0.099 0.763-0.288 1.106zM22.799 27.134c0.263-0.28 0.407-0.637 0.407-1.006s-0.144-0.726-0.407-1.006c-0.317-0.254-0.731-0.382-1.152-0.358h-0.639v2.729h0.639c0.42 0.024 0.834-0.105 1.152-0.358z"></path>
<path d="M12.838 0.581c0 0 11.873 4.104 11.621 10.043v10.045c0 0-11.864-4.106-11.617-10.045l-0.005-10.043z"></path>
<path d="M35.037 18.318c2.242-1.413 4.836-2.288 7.544-2.545v-3.145c-3.12 1.101-5.766 3.097-7.544 5.69z"></path>
<path d="M33.69 19.266c1.835-3.384 5.017-5.995 8.891-7.296v-9.061c0 0-16.909 5.846-16.551 14.304v14.302c0 0 0.753-0.262 1.939-0.752 0-0.457 0-0.918 0.054-1.382 0.35-3.926 2.389-7.565 5.668-10.115z"></path>
<path d="M32.081 24.579c0.089-0.992 0.287-1.973 0.592-2.928-2.042 2.203-3.278 4.936-3.536 7.815-0.025 0.272-0.038 0.544-0.045 0.824 0.96-0.422 2.078-0.949 3.252-1.569-0.3-1.362-0.388-2.756-0.263-4.141z"></path>
<path d="M32.754 24.63c-0.113 1.253-0.042 2.514 0.209 3.75 4.62-2.531 9.811-6.442 9.611-11.168v-0.412c-3.301 0.338-6.389 1.659-8.79 3.76-0.562 1.302-0.909 2.674-1.030 4.069z"></path>
</symbol>
<!--Grupo 1 -->
<symbol id="grupo-1" viewBox="0 0 67 32">
<path d="M33.724 15.285c-0.315-0.419-0.466-0.915-0.43-1.414v-2.050c0-0.628 0.142-1.106 0.428-1.433s0.775-0.489 1.469-0.488c0.652 0 1.115 0.139 1.389 0.417 0.299 0.355 0.444 0.789 0.411 1.226v0.482h-1.167v-0.488c0.004-0.16-0.007-0.319-0.034-0.478-0.017-0.108-0.076-0.208-0.167-0.284-0.12-0.082-0.271-0.121-0.423-0.111-0.16-0.010-0.318 0.031-0.444 0.117-0.102 0.084-0.169 0.193-0.193 0.313-0.033 0.167-0.049 0.337-0.046 0.507v2.488c-0.018 0.24 0.033 0.48 0.15 0.699 0.058 0.074 0.139 0.133 0.233 0.169s0.198 0.050 0.301 0.039c0.149 0.011 0.298-0.030 0.413-0.113 0.095-0.082 0.156-0.188 0.174-0.302 0.027-0.165 0.039-0.332 0.036-0.498v-0.505h1.167v0.461c0.033 0.456-0.109 0.909-0.403 1.289-0.268 0.304-0.725 0.457-1.396 0.457s-1.179-0.163-1.466-0.501z"></path>
<path d="M38.583 15.306c-0.295-0.319-0.442-0.784-0.442-1.399v-2.157c0-0.609 0.147-1.070 0.442-1.383s0.788-0.469 1.478-0.467c0.686 0 1.177 0.156 1.471 0.467 0.295 0.313 0.444 0.774 0.444 1.383v2.157c0 0.609-0.15 1.076-0.449 1.397s-0.788 0.482-1.466 0.482c-0.679 0-1.181-0.163-1.478-0.48zM40.605 14.789c0.106-0.2 0.154-0.419 0.14-0.638v-2.64c0.014-0.215-0.034-0.43-0.138-0.626-0.059-0.076-0.142-0.135-0.238-0.172s-0.203-0.050-0.308-0.037c-0.105-0.013-0.212 0-0.308 0.037s-0.18 0.096-0.24 0.172c-0.106 0.195-0.154 0.41-0.14 0.626v2.653c-0.015 0.219 0.033 0.439 0.14 0.638 0.068 0.067 0.152 0.121 0.246 0.158s0.196 0.056 0.3 0.056c0.103 0 0.206-0.019 0.3-0.056s0.178-0.091 0.246-0.158v-0.012z"></path>
<path d="M43.38 9.963h1.256l0.945 3.979 0.966-3.979h1.222l0.123 5.743h-0.904l-0.097-3.992-0.932 3.992h-0.725l-0.966-4.006-0.089 4.006h-0.913l0.114-5.743z"></path>
<path d="M49.301 9.963h1.957c1.127 0 1.691 0.544 1.691 1.631 0 1.041-0.593 1.561-1.78 1.56h-0.667v2.553h-1.208l0.007-5.743zM50.973 12.418c0.119 0.013 0.24 0.004 0.355-0.028s0.22-0.084 0.309-0.154c0.139-0.194 0.2-0.422 0.174-0.649 0.006-0.175-0.013-0.35-0.058-0.521-0.017-0.057-0.047-0.111-0.089-0.158s-0.093-0.086-0.153-0.116c-0.168-0.069-0.353-0.101-0.539-0.092h-0.469v1.716h0.469z"></path>
<path d="M54.691 9.963h1.297l1.331 5.743h-1.126l-0.263-1.324h-1.157l-0.271 1.324h-1.143l1.331-5.743zM55.8 13.717l-0.452-2.411-0.452 2.411h0.903z"></path>
<path d="M58.395 9.963h0.846l1.619 3.276v-3.276h1.003v5.743h-0.804l-1.628-3.42v3.42h-1.036l0.002-5.743z"></path>
<path d="M64.209 13.517l-1.346-3.545h1.133l0.821 2.277 0.771-2.277h1.109l-1.329 3.545v2.19h-1.16v-2.19z"></path>
<path d="M35.589 18.218v0.3h-0.986v2.334h-0.413v-2.334h-0.99v-0.3h2.389z"></path>
<path d="M38.679 20.852h-0.319c-0.032 0.002-0.064-0.007-0.089-0.025-0.024-0.015-0.043-0.036-0.053-0.060l-0.285-0.626h-1.367l-0.285 0.626c-0.008 0.026-0.023 0.050-0.044 0.071-0.025 0.017-0.057 0.026-0.089 0.025h-0.319l1.208-2.634h0.42l1.222 2.624zM36.679 19.874h1.14l-0.483-1.072c-0.036-0.081-0.066-0.164-0.089-0.248-0.017 0.050-0.031 0.098-0.046 0.14l-0.044 0.11-0.478 1.070z"></path>
<path d="M40.762 20.593c0.076 0.003 0.151 0.003 0.227 0 0.065-0.006 0.13-0.016 0.193-0.031 0.059-0.012 0.117-0.029 0.174-0.048 0.053-0.019 0.106-0.042 0.162-0.065v-0.592h-0.483c-0.012 0.001-0.024-0.001-0.035-0.005s-0.021-0.009-0.030-0.016c-0.008-0.006-0.014-0.013-0.018-0.022s-0.006-0.017-0.006-0.026v-0.202h0.937v1.010c-0.077 0.047-0.157 0.089-0.242 0.125-0.086 0.037-0.176 0.067-0.268 0.090-0.099 0.025-0.2 0.043-0.302 0.054-0.117 0.011-0.235 0.017-0.353 0.017-0.208 0.002-0.415-0.032-0.609-0.098-0.181-0.063-0.345-0.156-0.483-0.275-0.134-0.12-0.24-0.262-0.312-0.417-0.076-0.175-0.114-0.36-0.111-0.547-0.003-0.188 0.034-0.374 0.109-0.551 0.069-0.156 0.176-0.298 0.312-0.417 0.138-0.119 0.302-0.212 0.483-0.273 0.207-0.067 0.426-0.1 0.647-0.098 0.112-0 0.225 0.008 0.336 0.023 0.098 0.014 0.195 0.036 0.288 0.067 0.084 0.027 0.165 0.062 0.242 0.104 0.074 0.041 0.144 0.087 0.21 0.138l-0.116 0.163c-0.009 0.015-0.023 0.027-0.039 0.036s-0.036 0.014-0.055 0.014c-0.027-0.001-0.053-0.008-0.075-0.021-0.036-0.017-0.075-0.038-0.118-0.063-0.051-0.028-0.106-0.052-0.162-0.071-0.072-0.025-0.146-0.044-0.222-0.058-0.101-0.016-0.204-0.024-0.307-0.023-0.159-0.002-0.318 0.023-0.466 0.073-0.134 0.047-0.256 0.118-0.355 0.209-0.1 0.095-0.177 0.206-0.225 0.327-0.108 0.285-0.108 0.593 0 0.878 0.053 0.124 0.135 0.237 0.242 0.332 0.099 0.090 0.219 0.162 0.353 0.209 0.154 0.046 0.316 0.063 0.478 0.052z"></path>
<path d="M44.612 20.551h1.319v0.3h-1.722v-2.634h0.413l-0.010 2.334z"></path>
<path d="M47.304 20.852h-0.413v-2.634h0.413v2.634z"></path>
<path d="M48.84 18.23c0.025 0.012 0.046 0.028 0.063 0.048l1.766 1.986c-0.002-0.031-0.002-0.063 0-0.094 0-0.029 0-0.058 0-0.085v-1.877h0.36v2.645h-0.208c-0.031 0.002-0.062-0.003-0.089-0.015-0.025-0.013-0.047-0.030-0.065-0.050l-1.764-1.983c0 0.031 0 0.060 0 0.090s0 0.056 0 0.081v1.877h-0.345v-2.634h0.215c0.023 0 0.046 0.004 0.068 0.012z"></path>
<path d="M54.070 18.218v0.29h-1.464v0.87h1.186v0.279h-1.186v0.899h1.464v0.29h-1.889v-2.628h1.889z"></path>
<path d="M10.782 1.95l18.343 4.497v15.757l-18.343-4.495v-15.759zM9.605 0.607v17.867l20.694 5.074v-17.865l-20.694-5.076z"></path>
<path d="M20.696 31.843l-20.696-5.078v-17.866l20.696 5.076v17.868z"></path>
<path d="M9.948 1.748l18.104 4.44-7.699 6.649-18.106-4.442 7.702-6.647zM9.605 0.607l-9.605 8.292 20.696 5.076 9.603-8.292-20.694-5.076z"></path>
<path d="M21.861 30.838l8.438-7.287-8.438-2.071v9.358z"></path>
</symbol>
<!--cerrar -->
<symbol id="close-modal" viewBox="0 0 32 32">
<path d="M26.667 7.303l-1.97-1.97-7.808 7.808-7.808-7.808-1.97 1.97 7.808 7.808-7.808 7.808 1.97 1.97 7.808-7.808 7.808 7.808 1.97-1.97-7.808-7.808 7.808-7.808z"></path>
</symbol>

<!--Persona -->
<symbol id="persona" viewBox="0 0 32 32">
<path  d="M16 16c2.947 0 5.333-2.387 5.333-5.333s-2.387-5.333-5.333-5.333c-2.947 0-5.333 2.387-5.333 5.333s2.387 5.333 5.333 5.333zM16 18.667c-3.56 0-10.667 1.787-10.667 5.333v1.333c0 0.733 0.6 1.333 1.333 1.333h18.667c0.733 0 1.333-0.6 1.333-1.333v-1.333c0-3.547-7.107-5.333-10.667-5.333z"></path>
</symbol>
<!--Telefono  -->
<symbol id="telefono1" viewBox="0 0 32 32">
<path d="M24.882 19.773l-3.268-0.373c-0.785-0.090-1.557 0.18-2.11 0.733l-2.367 2.367c-3.641-1.853-6.626-4.825-8.478-8.478l2.38-2.38c0.553-0.553 0.823-1.325 0.733-2.11l-0.373-3.242c-0.154-1.299-1.248-2.277-2.56-2.277h-2.226c-1.454 0-2.663 1.209-2.573 2.663 0.682 10.987 9.469 19.761 20.443 20.443 1.454 0.090 2.663-1.119 2.663-2.573v-2.226c0.013-1.299-0.965-2.393-2.264-2.547z"></path>
</symbol>
<!--Email  -->
<symbol id="correo1" viewBox="0 0 32 32">
<path d="M26.667 5.333h-21.333c-1.467 0-2.653 1.2-2.653 2.667l-0.013 16c0 1.467 1.2 2.667 2.667 2.667h21.333c1.467 0 2.667-1.2 2.667-2.667v-16c0-1.467-1.2-2.667-2.667-2.667zM26.133 11l-9.427 5.893c-0.427 0.267-0.987 0.267-1.413 0l-9.427-5.893c-0.333-0.213-0.533-0.573-0.533-0.96 0-0.893 0.973-1.427 1.733-0.96l8.933 5.587 8.933-5.587c0.76-0.467 1.733 0.067 1.733 0.96 0 0.387-0.2 0.747-0.533 0.96z"></path>
</symbol>
<!--suscribase  -->
<symbol id="suscribase" viewBox="0 0 32 32">
<path fill="#fff" style="fill: var(--color1, #fff)" d="M32 0l-32 18 10.227 3.788 15.773-14.788-11.998 16.186 0.010 0.004-0.012-0.004v8.814l5.735-6.691 7.265 2.691 5-28z"></path>
</symbol>
</defs>
</svg>



